<svg xmlns="http://www.w3.org/2000/svg" viewBox="0 0 386.4255 109.4609"><defs><style>.cls-1{fill:#fff;}</style></defs><title>Asset 1</title><g id="Layer_2" data-name="Layer 2"><g id="Artwork"><path class="cls-1" d="M174.0343,81.4342h5.77a2.0051,2.0051,0,0,0,1.8484-1.9575V30.88c.0016-.0295.0024-.059.0027-.0887a1.86,1.86,0,0,0-1.8511-1.8688h-5.791a1.9476,1.9476,0,0,0-1.9382,1.9575V79.4767A2.1054,2.1054,0,0,0,174.0343,81.4342Z"/><path class="cls-1" d="M190.7583,81.4339h11.6478a2.005,2.005,0,0,0,1.8484-1.9575V43.056q-.014-.258-.0045-.5162a5.5688,5.5688,0,0,1,5.7746-5.3549h4.8984a5.4843,5.4843,0,0,1,5.6616,5.8711V79.4981a1.9477,1.9477,0,0,0,1.96,1.9357h4.2448a2.1066,2.1066,0,0,0,1.96-1.9583V39.4663q-.0008-.1744-.0073-.3491a10.599,10.599,0,0,0-10.9869-10.1959H199.7942c-.0916-.0009-.183,0-.2746.0013a10.7974,10.7974,0,0,0-10.6119,10.98V79.4764A2.0068,2.0068,0,0,0,190.7583,81.4339Z"/><path class="cls-1" d="M235.8286,69.8013a11.0784,11.0784,0,0,0,11.8661,11.6331h16.11A11.079,11.079,0,0,0,275.67,69.8013V1.8514c0-.0324-.0011-.0648-.003-.0973A1.8568,1.8568,0,0,0,273.71.0029h-4.4628c-.0557-.0027-.1112-.0027-.1669,0a1.7678,1.7678,0,0,0-1.6837,1.8484V22.9425q.0012.0832,0,.1664a5.9006,5.9006,0,0,1-5.9863,5.8132H247.26A10.7659,10.7659,0,0,0,235.8286,40.446Zm15.349-27.0641a5.7169,5.7169,0,0,1,5.8772-5.5523h4.3541c.0806-.0024.1615-.0032.2421-.0024a5.81,5.81,0,0,1,5.746,5.8735v17.83c.0005.0305.0009.0608.0009.0916a5.9932,5.9932,0,0,1-5.989,5.9969h-4.3541c-.056,0-.1119-.001-.1679-.0029a5.9005,5.9005,0,0,1-5.7093-6.0856V43.056h0C251.1743,42.95,251.1746,42.8433,251.1776,42.7372Z"/><path class="cls-1" d="M284.895,81.4342h5.77a2.0057,2.0057,0,0,0,1.8484-1.9575V30.88c.0016-.0292.0024-.0584.0027-.0876a1.8607,1.8607,0,0,0-1.8511-1.87h-5.7907a1.9483,1.9483,0,0,0-1.9393,1.9575V79.4767A2.1061,2.1061,0,0,0,284.895,81.4342Z"/><path class="cls-1" d="M311.6621,81.4339l-.0013,0h15.13q.1772-.0165.3555-.0179a4.1837,4.1837,0,0,1,4.2163,4.1506c-.0021.05-.0056.101-.01.1514a4.23,4.23,0,0,1-4.5622,3.87h-183.53a2.1064,2.1064,0,0,0-1.9591,1.9578v5.0912a1.948,1.948,0,0,0,1.9591,1.9371H329.1859a10.4475,10.4475,0,0,0,10.343-10.5455V39.4663c0-.04,0-.079,0-.1187a10.4931,10.4931,0,0,0-10.56-10.4263H310.354a10.6311,10.6311,0,0,0-10.5573,10.546V69.8008a11.0781,11.0781,0,0,0,11.8654,11.6331ZM307.96,43.056q-.0012-.1226.0024-.2457a5.8076,5.8076,0,0,1,5.9841-5.6254H318.3q.16-.0044.32,0a5.7172,5.7172,0,0,1,5.5585,5.8713v17.83c.0018.0565.0029.113.0029.1693A5.9,5.9,0,0,1,318.3,66.9745h-4.3532A6.0608,6.0608,0,0,1,307.96,60.886Z"/><path class="cls-1" d="M386.39,38.9959a10.995,10.995,0,0,0-11.8442-10.0745H358.5442A10.9937,10.9937,0,0,0,346.6766,40.446h.0016V70.56c-.0016.136-.0011.2719.0024.408a10.7314,10.7314,0,0,0,10.9918,10.4648h17.6339c.0579,0,.1154-.0005.1733-.0016a11.12,11.12,0,0,0,10.9313-11.3063v-29.68A10.9486,10.9486,0,0,0,386.39,38.9959Zm-8.1417,28.56a5.858,5.858,0,0,1-5.99,5.723h-4.3522a5.6531,5.6531,0,0,1-5.8788-6.0886V49.4685a5.4618,5.4618,0,0,1,5.8778-5.98h4.68a5.4045,5.4045,0,0,1,5.6608,5.98V67.19Q378.2523,67.3731,378.248,67.5556Z"/><path class="cls-1" d="M164.809,70.9961V40.446a10.9957,10.9957,0,0,0-11.8654-11.5238H136.9414A10.9949,10.9949,0,0,0,125.0761,40.446V96.7722c-.0015.0287-.0023.0573-.0024.0862a1.8619,1.8619,0,0,0,1.853,1.8707h4.3527a1.8292,1.8292,0,0,0,1.96-1.9575V84.6949l.0007-.0428a3.2976,3.2976,0,0,1,3.3747-3.219H154.249A10.54,10.54,0,0,0,164.809,70.9961Zm-18.5078,2.2824c-.056,0-.112-.0011-.1679-.0029a5.901,5.901,0,0,1-5.7109-6.0849V49.4685c-.0023-.0806-.003-.161-.002-.2416a5.81,5.81,0,0,1,5.88-5.7379h4.3556q.085-.0012.17,0a5.8985,5.8985,0,0,1,5.8165,5.98V67.1907c.0005.0322.0008.064.0008.0962a5.99,5.99,0,0,1-5.9873,5.9916Z"/><path class="cls-1" d="M384.45,89.5885H348.6376a2.1065,2.1065,0,0,0-1.96,1.9577v5.09a1.9489,1.9489,0,0,0,1.96,1.9379v-.0019h35.8316a1.9482,1.9482,0,0,0,1.9411-1.9556V91.5462A2.106,2.106,0,0,0,384.45,89.5885Z"/><path class="cls-1" d="M174.0343,24.3557h5.77A2.0047,2.0047,0,0,0,181.6528,22.4V16.61c.0016-.0295.0024-.059.0027-.0884a1.86,1.86,0,0,0-1.8511-1.8685h-5.79a1.9484,1.9484,0,0,0-1.9393,1.957V22.4A2.1057,2.1057,0,0,0,174.0343,24.3557Z"/><path class="cls-1" d="M284.895,24.3557h5.77A2.0059,2.0059,0,0,0,292.5136,22.4V16.61q.0024-.0434.0024-.0868a1.8606,1.8606,0,0,0-1.8508-1.87H284.876a1.9491,1.9491,0,0,0-1.9409,1.957V22.4A2.1067,2.1067,0,0,0,284.895,24.3557Z"/><path class="cls-1" d="M37.0116,54.6979q-.0556-.0019-.1113,0H31.9112a1.5678,1.5678,0,0,0-1.6034,1.6929v8.2851a1.5678,1.5678,0,0,0,1.6034,1.6929H36.9a1.6378,1.6378,0,0,0,1.6929-1.581q.002-.056,0-.1119V56.3908A1.6382,1.6382,0,0,0,37.0116,54.6979Z"/><path class="cls-1" d="M31.8036,9.4019a52.0808,52.0808,0,0,0,39.5193,96.3667V58.9628a7.9831,7.9831,0,0,0-7.6987-8.2576q-.3526-.0123-.7052.0065H56.5014a2.8186,2.8186,0,0,1-2.7508-2.5977V32.9868a2.7365,2.7365,0,0,1,2.7222-2.75H67.8087a15.4558,15.4558,0,0,1,15.28,15.4327V99.2077A52.0744,52.0744,0,0,0,31.8036,9.4019ZM48.5864,49.2326v3.115h-.0005a1.4482,1.4482,0,0,1-1.379,1.5144q-.0678.0032-.1358,0H44.9333A1.6382,1.6382,0,0,0,43.24,55.4433c-.0012.0372-.0012.0743,0,.1115V63.84a1.638,1.638,0,0,0,1.581,1.6929q.056.0019.1119,0h2.1378a1.4484,1.4484,0,0,1,1.5148,1.3787q.0032.0679,0,.1359v2.9963a1.448,1.448,0,0,1-1.3789,1.5141q-.068.0032-.1359,0H44.9333A1.7506,1.7506,0,0,0,43.24,73.2507v7.3047A1.561,1.561,0,0,1,41.7261,82.07h-1.619a1.5611,1.5611,0,0,1-1.5146-1.5144V73.25A1.7507,1.7507,0,0,0,36.9,71.5572H31.9106A1.6713,1.6713,0,0,0,30.3072,73.25v7.3052A1.4484,1.4484,0,0,1,28.9279,82.07c-.045.002-.09.002-.1352,0h-1.35a1.52,1.52,0,0,1-1.6017-1.4345q-.0021-.04-.0023-.08V73.25a1.8115,1.8115,0,0,0-1.6032-1.6929H22.0079a1.43,1.43,0,0,1-1.6036-1.5141V67.0468A1.5241,1.5241,0,0,1,21.9359,65.53q.0359,0,.0719.0021h2.2273a1.6751,1.6751,0,0,0,1.6032-1.6929V55.5543a1.6752,1.6752,0,0,0-1.6032-1.6929H22.0079a1.5242,1.5242,0,0,1-1.6016-1.4424c-.0013-.0239-.002-.048-.0021-.0719V49.2326a1.43,1.43,0,0,1,1.6036-1.5147h2.2273a1.811,1.811,0,0,0,1.6032-1.6929V38.8637a1.5677,1.5677,0,0,1,1.6039-1.6929h1.351a1.6053,1.6053,0,0,1,1.5146,1.6912V46.025a1.6714,1.6714,0,0,0,1.6034,1.6929H36.9a1.7507,1.7507,0,0,0,1.6929-1.6929V38.8637a1.6052,1.6052,0,0,1,1.5128-1.6928h1.6208a1.6054,1.6054,0,0,1,1.5145,1.6914V46.025a1.7506,1.7506,0,0,0,1.6929,1.6929h2.1378a1.3633,1.3633,0,0,1,1.5148,1.5147Z"/></g></g></svg>